# xmcd CD database file
#
# Track frame offsets:
#	150
#	12948
#	31905
#	48619
#	61494
#	81247
#	98822
#	112972
#	127824
#	143595
#
# Disc length: 2157 seconds
#
# Revision: 0
# Processed by: cddbd v1.5.1PL0 Copyright (c) Steve Scherf et al.
# Submitted via: CDex 1.51
#
DISCID=7a086b0a
DTITLE=Let 'er Ride - Baby I'm In It
DYEAR=1998
DGENRE=Country
TTITLE0=Baby I'm In It
TTITLE1=Last One To Know
TTITLE2=All Over Again
TTITLE3=Full Moon or Empty Bottle
TTITLE4=One Too Many
TTITLE5=If Your Heart's Not In It
TTITLE6=Going the Wrong Way
TTITLE7=Spit It Out
TTITLE8=I'll Never Get Over You (Getting Over Me)
TTITLE9=In Your Eyes
EXTD=YEAR: 1998
EXTT0=
EXTT1=
EXTT2=
EXTT3=
EXTT4=
EXTT5=
EXTT6=
EXTT7=
EXTT8=
EXTT9=
PLAYORDER=
